<svg width="32" height="32" viewBox="0 0 32 32" fill="none" xmlns="http://www.w3.org/2000/svg">
<path d="M13.5998 15.2H11.9998V16.8H13.5998V15.2ZM16.7998 15.2H15.1998V16.8H16.7998V15.2ZM19.9998 15.2H18.3998V16.8H19.9998V15.2ZM21.5998 9.6H20.7998V8H19.1998V9.6H12.7998V8H11.1998V9.6H10.3998C9.5118 9.6 8.7998 10.32 8.7998 11.2V22.4C8.7998 22.8243 8.96838 23.2313 9.26843 23.5314C9.56849 23.8314 9.97546 24 10.3998 24H21.5998C22.0242 24 22.4311 23.8314 22.7312 23.5314C23.0312 23.2313 23.1998 22.8243 23.1998 22.4V11.2C23.1998 10.7757 23.0312 10.3687 22.7312 10.0686C22.4311 9.76857 22.0242 9.6 21.5998 9.6ZM21.5998 22.4H10.3998V13.6H21.5998V22.4Z" fill="#2855FF"/>
</svg>
