<svg width="30" height="30" viewBox="0 0 30 30" fill="none" xmlns="http://www.w3.org/2000/svg">
<path d="M12.75 14.25H11.25V15.75H12.75V14.25ZM15.75 14.25H14.25V15.75H15.75V14.25ZM18.75 14.25H17.25V15.75H18.75V14.25ZM20.25 9H19.5V7.5H18V9H12V7.5H10.5V9H9.75C8.9175 9 8.25 9.675 8.25 10.5V21C8.25 21.3978 8.40804 21.7794 8.68934 22.0607C8.97064 22.342 9.35218 22.5 9.75 22.5H20.25C20.6478 22.5 21.0294 22.342 21.3107 22.0607C21.592 21.7794 21.75 21.3978 21.75 21V10.5C21.75 10.1022 21.592 9.72064 21.3107 9.43934C21.0294 9.15804 20.6478 9 20.25 9ZM20.25 21H9.75V12.75H20.25V21Z" fill="#2855FF"/>
</svg>
