<svg width="24" height="24" viewBox="0 0 24 24" fill="none" xmlns="http://www.w3.org/2000/svg">
<path d="M19 23H5C3.3 23 2 21.7 2 20V4C2 2.3 3.3 1 5 1H19C20.7 1 22 2.3 22 4V20C22 21.7 20.7 23 19 23ZM5 3C4.4 3 4 3.4 4 4V20C4 20.6 4.4 21 5 21H19C19.6 21 20 20.6 20 20V4C20 3.4 19.6 3 19 3H5Z" fill="#232968"/>
<path d="M15.2727 17.7778H8.72727C8.29091 17.7778 8 17.4222 8 16.8889C8 16.3556 8.29091 16 8.72727 16H15.2727C15.7091 16 16 16.3556 16 16.8889C16 17.4222 15.6364 17.7778 15.2727 17.7778Z" fill="#232968"/>
<path d="M15.7713 9.936C15.6167 9.7804 15.4023 9.68843 15.1751 9.68033C14.948 9.67223 14.7266 9.74865 14.5598 9.8928L12.858 11.3664V6.8C12.858 6.58783 12.7676 6.38434 12.6069 6.23431C12.4461 6.08429 12.228 6 12.0006 6C11.7732 6 11.5552 6.08429 11.3944 6.23431C11.2336 6.38434 11.1433 6.58783 11.1433 6.8V11.3672L9.44054 9.8928C9.27376 9.74852 9.05238 9.67198 8.82511 9.68C8.59783 9.68803 8.38329 9.77997 8.22867 9.9356C8.07405 10.0912 7.99201 10.2978 8.00061 10.5099C8.00487 10.6149 8.03126 10.7181 8.07826 10.8136C8.12526 10.909 8.19195 10.995 8.27454 11.0664L11.4176 13.7864C11.4998 13.8454 11.588 13.8968 11.6808 13.94C11.7821 13.9796 11.8908 14 12.0006 14C12.1104 14 12.2191 13.9796 12.3204 13.94C12.4131 13.8965 12.5012 13.8451 12.5836 13.7864L15.7258 11.0664C15.8925 10.9221 15.9909 10.722 15.9994 10.51C16.0079 10.298 15.9259 10.0915 15.7713 9.936Z" fill="#232968"/>
</svg>
