<svg width="24" height="24" viewBox="0 0 24 24" fill="none" xmlns="http://www.w3.org/2000/svg">
<path d="M13.8 10.2H7.79998V7.8H13.8V10.2ZM12 16.2C11.5226 16.2 11.0647 16.0104 10.7272 15.6728C10.3896 15.3352 10.2 14.8774 10.2 14.4C10.2 13.9226 10.3896 13.4648 10.7272 13.1272C11.0647 12.7896 11.5226 12.6 12 12.6C12.4774 12.6 12.9352 12.7896 13.2728 13.1272C13.6103 13.4648 13.8 13.9226 13.8 14.4C13.8 14.8774 13.6103 15.3352 13.2728 15.6728C12.9352 16.0104 12.4774 16.2 12 16.2ZM15 6.6H7.79998C7.13398 6.6 6.59998 7.14 6.59998 7.8V16.2C6.59998 16.5183 6.7264 16.8235 6.95145 17.0485C7.17649 17.2736 7.48172 17.4 7.79998 17.4H16.2C16.5182 17.4 16.8235 17.2736 17.0485 17.0485C17.2735 16.8235 17.4 16.5183 17.4 16.2V9L15 6.6Z" fill="white"/>
</svg>
