<svg width="32" height="32" viewBox="0 0 32 32" fill="none" xmlns="http://www.w3.org/2000/svg">
<path d="M16 14C16.6365 14 17.247 14.2529 17.6971 14.703C18.1471 15.1531 18.4 15.7635 18.4 16.4C18.4 17.0365 18.1471 17.647 17.6971 18.0971C17.247 18.5472 16.6365 18.8 16 18.8C15.3635 18.8 14.753 18.5472 14.3029 18.0971C13.8529 17.647 13.6 17.0365 13.6 16.4C13.6 15.7635 13.8529 15.1531 14.3029 14.703C14.753 14.2529 15.3635 14 16 14ZM16 10.4C20 10.4 23.416 12.888 24.8 16.4C23.416 19.912 20 22.4 16 22.4C12 22.4 8.584 19.912 7.2 16.4C8.584 12.888 12 10.4 16 10.4ZM8.944 16.4C10.264 19.088 12.992 20.8 16 20.8C19.008 20.8 21.736 19.088 23.056 16.4C21.736 13.712 19.008 12 16 12C12.992 12 10.264 13.712 8.944 16.4Z" fill="#2855FF"/>
</svg>
