<svg width="32" height="32" viewBox="0 0 32 32" fill="none" xmlns="http://www.w3.org/2000/svg">
<path d="M8.0002 9.8158L9.0242 8.7998L22.4002 22.1758L21.3842 23.1998L18.9202 20.7358C18.0002 21.0398 17.0242 21.1998 16.0002 21.1998C12.0002 21.1998 8.5842 18.7118 7.2002 15.1998C7.7522 13.7918 8.6322 12.5518 9.7522 11.5678L8.0002 9.8158ZM16.0002 12.7998C16.6367 12.7998 17.2472 13.0527 17.6973 13.5027C18.1473 13.9528 18.4002 14.5633 18.4002 15.1998C18.4002 15.4798 18.3522 15.7518 18.2642 15.9998L15.2002 12.9358C15.4482 12.8478 15.7202 12.7998 16.0002 12.7998ZM16.0002 9.1998C20.0002 9.1998 23.4162 11.6878 24.8002 15.1998C24.1442 16.8638 23.0322 18.3038 21.6002 19.3518L20.4642 18.2078C21.5522 17.4558 22.4482 16.4318 23.0562 15.1998C21.7362 12.5118 19.0082 10.7998 16.0002 10.7998C15.1282 10.7998 14.2722 10.9438 13.4722 11.1998L12.2402 9.9758C13.3922 9.4798 14.6642 9.1998 16.0002 9.1998ZM8.9442 15.1998C10.2642 17.8878 12.9922 19.5998 16.0002 19.5998C16.5522 19.5998 17.0962 19.5438 17.6002 19.4318L15.7762 17.5998C14.6322 17.4798 13.7202 16.5678 13.6002 15.4238L10.8802 12.6958C10.0882 13.3758 9.4242 14.2238 8.9442 15.1998Z" fill="#367BF5"/>
</svg>
