<svg width="30" height="30" viewBox="0 0 30 30" fill="none" xmlns="http://www.w3.org/2000/svg">
<path d="M13.1797 6.25C14.9036 6.25 16.5569 6.93482 17.7759 8.15381C18.9949 9.37279 19.6797 11.0261 19.6797 12.75C19.6797 14.36 19.0897 15.84 18.1197 16.98L18.3897 17.25H19.1797L24.1797 22.25L22.6797 23.75L17.6797 18.75V17.96L17.4097 17.69C16.2697 18.66 14.7897 19.25 13.1797 19.25C11.4558 19.25 9.80248 18.5652 8.58349 17.3462C7.36451 16.1272 6.67969 14.4739 6.67969 12.75C6.67969 11.0261 7.36451 9.37279 8.58349 8.15381C9.80248 6.93482 11.4558 6.25 13.1797 6.25ZM13.1797 8.25C10.6797 8.25 8.67969 10.25 8.67969 12.75C8.67969 15.25 10.6797 17.25 13.1797 17.25C15.6797 17.25 17.6797 15.25 17.6797 12.75C17.6797 10.25 15.6797 8.25 13.1797 8.25Z" fill="#B8BCD5"/>
</svg>
